<?xml version="1.0" encoding="UTF-8"?>
<svg id="Layer_2" data-name="Layer 2" xmlns="http://www.w3.org/2000/svg" viewBox="0 0 227.51 119.15">
  <defs>
    <style>
      .cls-1 {
        fill: #f5f5f5;
      }
    </style>
  </defs>
  <g id="Layer_1-2" data-name="Layer 1">
    <g>
      <path class="cls-1" d="m83.28,23.39c.37,1.92.1,4.79-.81,8.62-.67,2.72-.85,4.84-.55,6.38.44,1.91,1.24,2.78,2.4,2.62,2.88-.56,7.11-4.73,12.69-12.52.3-.52.58-.94.85-1.26l1.3,1.04c-7.12,10.47-12.59,16.11-16.41,16.92-2.45.34-3.98-.85-4.58-3.59-.35-1.79-.05-4.5.91-8.14.91-3.49,1.16-6.33.73-8.5-.37-1.92-1.22-3.38-2.54-4.38-.29-.14-.51-.23-.65-.27-.3.19-.36.7-.2,1.53.62,3.53-.46,7.35-3.24,11.48l-.48.09-.72-1.15c1.79-2.74,2.39-5.6,1.81-8.61-.49-2.16-1.54-3.98-3.15-5.46-.06-.32.11-.72.51-1.19.4-.48.81-.89,1.2-1.23l.61-.42c5.77,0,9.21,2.69,10.32,8.04Z"/>
      <path class="cls-1" d="m140.33,18.96c-.72,1.07-1.8,2.37-3.22,3.91-5.18,5.78-9.27,8.97-12.27,9.55-1.55.24-2.56-.53-3.03-2.3-.15-.77-.18-1.76-.08-2.97.32-2.78.46-4.27.43-4.46-.24-.88-.91-1.25-2-1.1-1.66.32-2.69.99-3.09,1.99-.27.65-1.01,1.82-2.2,3.51-4.1,5.51-7.66,8.55-10.66,9.14-1.04.14-2.02-1.5-1.96-1.91.05-.38.13-1.02.24-1.91-.39.19-.84.3-1.37.3,0,0,0,0,0,0-.14,3.72-.25,7.38.18,7.38.24,0,.5-.02.76-.06l.48-.09c3.27-.9,6.1-2.55,8.49-4.93.23-.18,1.97-2.17,5.2-5.99-.07,1.01-.05,1.8.06,2.38.9,4.27,2.92,6.16,6.08,5.68,2.68-.52,6.07-2.74,10.15-6.65,3.85-3.73,6.86-7.2,9.02-10.41l-1.2-1.06Z"/>
      <path class="cls-1" d="m149.56,16.77c1.68-2.25,2.85-3.57,3.51-3.97.29-.19.6-.32.92-.38.38-.07.64-.09.78-.05,2.07.39,3.39,2.09,3.98,5.1.1.51.16,1.33.18,2.45.08,1.11.17,1.89.26,2.34.3,1.2.87,1.76,1.72,1.66,3-.58,7.15-3.15,12.43-7.69,2.15-1.88,3.62-3.39,4.39-4.53l1.3,1.04c-1.65,2.44-5.01,5.62-10.09,9.52-4.5,3.46-8.03,5.44-10.59,5.94-1.8-.05-2.91-.79-3.32-2.24-.09-.45-.18-1.26-.27-2.43-.22-1.81-.43-3.23-.63-4.26-.09-.45-.28-1.11-.58-1.98-3.77,3.12-6.43,6.16-7.98,9.11l-.08.11c-.05.08-.1.17-.15.28-.05.11-.12.26-.21.44-.1.19-.2.35-.3.51-.1.15-.2.32-.3.51-.1.19-.19.37-.29.55-.1.19-.18.37-.24.55-.07.18-.14.32-.21.44s-.14.24-.17.38l-.17.13c-.27.32-.69.73-1.25,1.24-.39.41-.66.69-.83.86-.14-.04-.41-.09-.82-.14-1.19-.3-1.87-.73-2.04-1.29-.12-.64-.15-1.27-.07-1.88.08-5.39-.08-11.69-.49-18.91.13-.03.29-.06.48-.09.24-.11.4-.18.46-.19,2.26.03,3.78,1.36,4.56,3.99.31,1.6.26,4.09-.14,7.49-.04.47-.15,1.26-.34,2.35-.13.69-.2,1.17-.22,1.44.58-.78,1.52-1.89,2.83-3.34,1.9-2.16,3.23-3.84,3.99-5.05Z"/>
      <path class="cls-1" d="m191.4,15.01c-1.61,5.36-4.11,8.72-7.49,10.11-.55.24-1.05.4-1.5.49-2.68.52-4.68-.68-5.98-3.61-.28-.74-.49-1.5-.64-2.26-.68-3.85-.13-7.84,1.66-11.96.1-.15.49-.86,1.18-2.12,1.34-1.98,2.3-3.17,2.89-3.55.29-.19.57-.31.83-.36l.19-.04.21.06c.89-.9,1.87-1.46,2.96-1.67,2.17-.42,3.96.59,5.37,3.04.51.9.86,1.86,1.06,2.88.31,1.6.34,3.45.08,5.56,2.18.64,4.42.73,6.72.29,2.75-.53,5.36-2.1,7.84-4.71.5-.49.88-.93,1.14-1.32l1.2,1.06c-1.91,2.83-4.88,5.09-8.93,6.81-1.16.49-2.29.84-3.38,1.05-1.92.37-3.72.46-5.42.26Zm-1.87-.43c-3.39-.73-5.82-2.28-7.27-4.66-1.7,5.24-2.4,8.79-2.11,10.66.39,1.65,1.07,2.41,2.04,2.29,2.68-.52,4.84-2.57,6.47-6.13.39-.74.68-1.46.87-2.16Zm.58-3.69c-.02-1.46-.11-2.63-.29-3.53-.32-1.66-1.1-2.74-2.32-3.23-.29-.14-.57-.19-.82-.14-.81.29-1.12,1.05-.95,2.27.45,1.97,1.91,3.51,4.38,4.62Z"/>
      <path class="cls-1" d="m.72,60.72c-2.48-7.45,1.47-15.78,11.84-24.99,7.91-6.98,16.54-12.32,25.9-16.03,8.18-3.24,15.58-4.39,22.2-3.47,5.48.96,8.95,3.49,10.4,7.6,1.11,3.62.11,7.82-3.02,12.6-3.16,4.69-6.81,8.68-10.96,11.99,8.93,3.03,14.84,7.83,17.73,14.39.73.33,2.41,1.23,5.03,2.69l-.07.18c-1.94-.48-3.36-.75-4.27-.81,2.25,8.9.05,16.33-6.6,22.29-2.26,2.04-4.89,3.76-7.89,5.16-4.01,1.59-7.53,1.16-10.57-1.29-1.46-1.19-2.47-2.62-3.02-4.27-2.12-7.7-.28-14.21,5.52-19.52,2.41-2.1,5.19-3.77,8.34-5.02l.24-.09c2.44-.96,4.81-1.33,7.11-1.09-3.9-5.02-9.21-8.17-15.96-9.46-4.38,2.88-9,5.44-13.86,7.67l-.94.37c2.33,23.86,4.06,43.64,5.19,59.34-.83-.09-1.54-.22-2.14-.4-.08.03-.32.23-.73.6-.92-10.78-3.07-30.23-6.47-58.37-3.72.85-6.35.17-7.88-2.04-.95-2.85.06-5.44,3.02-7.76.9-.77,1.86-1.36,2.88-1.77l.59-.23c-.12-.89-.3-2.23-.53-4.01-.16-1.81-.28-3.12-.37-3.92-.15.89-.44,3.51-.86,7.84l-2.35.15c.21-1.23.59-5.86,1.12-13.88.13-2.03.27-3.75.42-5.16.57-.43,1.09-.74,1.56-.93.16-.06.5-.17,1.03-.33.53-.15.87-.26,1.03-.33l.35-.14c.12.37.29.88.51,1.52.32.71.53,1.2.62,1.47.42,3.69,1,9.29,1.72,16.81,5.57-1.16,10.38-1.55,14.42-1.18,4.92-3.4,9.01-7.42,12.28-12.04,2.74-3.79,3.88-6.64,3.43-8.54-1.99-5.98-8.73-7.79-20.22-5.43-3.33.69-6.49,1.63-9.48,2.81-10.38,4.11-19.1,9.59-26.16,16.44-7.08,7.07-9.69,13.52-7.84,19.35.35.8,1.22,1.39,2.6,1.78l.12-.05-.33,2.63c-1.91.13-3.33-.66-4.26-2.38-.2-.34-.33-.6-.39-.78Zm30.21-5.08c.91.06,1.62.04,2.12-.06.05-.12.03-.32-.07-.6-.01-.31-.03-.51-.07-.6l-.94.37c-.08.03-.22.14-.43.32-.25.31-.46.49-.62.56Zm12.85-4.3c-2.23.26-4.45.67-6.66,1.23-.02.22,0,.52.04.92,0,.52.02.88.09,1.06l1.77-.7c.52-.31,1.39-.76,2.62-1.35.96-.59,1.68-.98,2.15-1.16Zm27.38,13.69c-3.03.26-5.96.95-8.79,2.07-7.63,3.02-11.44,7.6-11.44,13.74-.06,1.17.06,2.32.35,3.46.95,2.85,3.33,3.99,7.14,3.42.85-.13,1.66-.35,2.45-.66,9.4-5.18,12.97-12.21,10.73-21.12-.03-.09-.1-.24-.22-.46-.12-.21-.19-.37-.22-.46Z"/>
      <path class="cls-1" d="m87.19,83.93c-2.63.45-4.22-.37-4.75-2.46-.15-.77-.1-1.7.15-2.82.64-.12,1.29-.35,1.96-.68,2.97-1.44,4.58-3.74,4.83-6.91.03-.86.03-1.36,0-1.49-.35-1.46-1.33-2.09-2.96-1.91-.13.02-.47.15-1.02.4-1.59.7-3.02,2.04-4.29,4.02-2.28,3.62-3.07,7.26-2.36,10.9.12.64.38,1.25.75,1.85,1.33,1.73,3.5,2.3,6.51,1.72,2.62-.51,5.64-2.02,9.06-4.54,1.88-1.35,3.55-2.7,5.01-4.03l-.45-1.9c-4.73,4.55-8.87,7.17-12.44,7.86Zm-3.65-9.04c.88-2.3,1.67-3.51,2.38-3.65.27.02.48.24.63.68.38,2.31-.81,3.87-3.57,4.67.15-.56.35-1.13.56-1.7Z"/>
      <path class="cls-1" d="m102.3,35.25c-.91,5.84-2.41,12.92-4.48,21.25.33,7.08.83,13.24,1.5,18.46.05.19.15.53.29,1.03.17.83.31,1.44.41,1.81.92,2.99,2.42,4.22,4.51,3.69,3.32-.95,7.79-5.57,13.41-13.88,1.3-1.86,2.31-3.43,3.02-4.72l1.29.95c-5.55,9.98-10.58,16.56-15.09,19.74-1.02.7-1.97,1.17-2.85,1.42-2.94.84-5.37-1.01-7.27-5.55-.02-.06-.04-.12-.05-.19-.21-.48-.45-1.23-.74-2.23-1.18-4.13-1.99-9.96-2.44-17.48-.41-6.18.1-15.8,1.53-28.87.27-2.85.74-5.12,1.41-6.8.13-.24.22-.4.27-.48,1.26-1.51,2.24-2.36,2.93-2.56.88-.25,1.72.09,2.52,1.01.23.34.4.7.51,1.07.09.31.18,1.71.28,4.19-.16,2.37-.48,5.08-.96,8.12h0Zm-4.36,12.08c1.21-5.14,2.07-9.57,2.58-13.29.42-3.09.88-8.41-.13-8.07-.84.29-1.06,1.22-1.46,3.98-.56,3.84-.6,12.1-.99,17.38Z"/>
      <path class="cls-1" d="m139.01,68.32c-3.24,3.81-4.97,5.81-5.2,5.99-2.39,2.39-5.22,4.03-8.49,4.93l-.48.09c-2.65.38-4.32-1.05-5.01-4.3-.57-2.94-.46-5.95.34-9.02l.16-1.72c.25-1.77.96-2.91,2.13-3.4.37-.14.75-.25,1.13-.32,1.37-.13,2.23.53,2.58,1.99.12.64.07,1.74-.15,3.31-.08.61-.24,1.91-.49,3.88-.25,1.97-.41,3.26-.49,3.88-.05.41-.06.71-.02.9.29.81.95,1.14,1.99,1.01,3-.58,6.56-3.63,10.66-9.14,1.2-1.69,1.93-2.86,2.2-3.51.4-1.01,1.43-1.67,3.09-1.99,1.1-.15,1.77.22,2.01,1.1.04.19-.1,1.68-.43,4.46-.1,1.21-.07,2.2.08,2.97.48,1.77,1.49,2.53,3.03,2.3,3-.58,7.09-3.77,12.27-9.55,1.43-1.54,2.5-2.84,3.22-3.91l1.2,1.06c-2.16,3.21-5.17,6.68-9.02,10.41-4.08,3.91-7.47,6.13-10.15,6.65-3.16.48-5.18-1.41-6.08-5.68-.11-.58-.13-1.37-.06-2.38Z"/>
      <path class="cls-1" d="m168.49,53.63c-.64.12-1.46,1.35-2.47,3.66-1.14,2.68-1.52,4.97-1.15,6.89.5,1.89,1.91,2.65,4.22,2.26,3.77-.73,8.19-3.61,13.24-8.64,1.55-1.56,2.69-2.88,3.41-3.95l1.2,1.06c-2.11,3.13-5.44,6.33-9.97,9.6-3.42,2.52-6.45,4.04-9.07,4.55-2.75.53-4.76-.27-6.04-2.41-.38-.59-.63-1.2-.76-1.84-.58-3,.26-6.35,2.53-10.04,1.72-2.72,3.51-4.3,5.35-4.72,1.62-.18,2.6.42,2.94,1.82l-.09,1.61c-.23.84-1.07,1.5-2.5,1.98l-.31-.04c-.02-.13-.03-.32-.02-.59.03-.2.03-.34.02-.4-.16-.5-.35-.76-.55-.79Z"/>
      <path class="cls-1" d="m191.12,49.23c-.64.12-1.46,1.35-2.47,3.66-1.14,2.68-1.52,4.97-1.15,6.89.5,1.89,1.91,2.65,4.22,2.26,3.77-.73,8.18-3.61,13.24-8.64,1.55-1.56,2.69-2.88,3.41-3.95l1.2,1.06c-2.11,3.13-5.44,6.33-9.97,9.6-3.42,2.52-6.45,4.04-9.07,4.55-2.75.53-4.76-.27-6.04-2.41-.38-.59-.63-1.2-.76-1.84-.58-3,.26-6.35,2.52-10.04,1.73-2.72,3.51-4.3,5.35-4.72,1.62-.18,2.6.42,2.94,1.82l-.09,1.61c-.23.84-1.07,1.5-2.5,1.98l-.31-.04c-.02-.13-.03-.32-.02-.59.03-.2.03-.34.02-.4-.16-.5-.35-.76-.55-.79Z"/>
      <path class="cls-1" d="m210.54,35.01c-1.86-1.03-3.24-2.49-4.13-4.37.05-.08.13-.16.25-.25l1.65-3.8c1.7.53,2.83,1.74,3.39,3.62.01.06.02.13.04.19.02.13.06.32.11.58-.03.2-.03.37,0,.5-.12,1.09-.36,2.09-.71,3.02-.04.14-.09.25-.14.33l-.46.19Zm-2.28,16.96c-.01-.06-.02-.26-.02-.59-.11-1.57-.11-2.8-.02-3.68.38-1.8,1.01-2.82,1.89-3.05,1.11.25,1.92,1.19,2.44,2.81.17.9.21,1.75.1,2.57-.37,2.53-.46,4.27-.28,5.23.4,1.38,1.15,2,2.25,1.85,2.75-.53,6.3-3.75,10.66-9.63.36-.53.69-1.03,1-1.49l1.2,1.06c-3.55,5.27-7.33,9.19-11.35,11.76-1.65,1.05-3.15,1.71-4.49,1.97-1.62.18-2.68-.81-3.16-2.97-.32-1.66-.4-3.6-.24-5.82Z"/>
    </g>
  </g>
</svg>